<?xml version="1.0" encoding="UTF-8" standalone="no"?>
<svg
   xmlns:dc="http://purl.org/dc/elements/1.1/"
   xmlns:cc="http://creativecommons.org/ns#"
   xmlns:rdf="http://www.w3.org/1999/02/22-rdf-syntax-ns#"
   xmlns:svg="http://www.w3.org/2000/svg"
   xmlns="http://www.w3.org/2000/svg"
   viewBox="0 0 434.64001 449.25333"
   height="449.25333"
   width="434.64001"
   xml:space="preserve"
   id="svg2"
   version="1.1"><metadata
     id="metadata8"><rdf:RDF><cc:Work
         rdf:about=""><dc:format>image/svg+xml</dc:format><dc:type
           rdf:resource="http://purl.org/dc/dcmitype/StillImage" /></cc:Work></rdf:RDF></metadata><defs
     id="defs6" /><g
     transform="matrix(1.3333333,0,0,-1.3333333,0,449.25333)"
     id="g10"><g
       transform="scale(0.1)"
       id="g12"><path
         id="path14"
         style="fill:#203466;fill-opacity:1;fill-rule:nonzero;stroke:none"
         d="m 2816.22,1892.75 c 8.18,28.62 8.3,56.31 6.7,87.87 48.67,-9.83 45.46,-84.19 -6.7,-87.87 M 2498.7,1373.62 c 0,0 -9.63,-52.62 -40.26,-37.49 -30.62,15.13 -37.89,61.59 -37.89,61.59 0,0 35.35,-14.87 78.15,-24.1 z m 228,-84.86 c -34.66,-56.82 -129.49,6.27 -129.49,6.27 27.31,21.03 44.63,57.93 50.55,103.31 47.97,-3.31 115.74,-49.31 78.94,-109.58 z m -388.98,1595.57 c -39.59,15.19 -28.42,137.1 -28.42,137.1 9.44,-55.46 75.1,-93.23 131.78,-60.83 0,0 -57.85,-93.74 -103.36,-76.27 z m -89.26,-944.25 c -29.28,-5.54 -65.99,6.89 -87.87,23.64 -70.51,54.12 -99.49,199.34 -104.71,310.9 30.14,-64.1 78.27,-165.35 165.55,-138.57 29.81,9.17 65.14,48.88 65.14,48.88 27.24,-74.43 50.08,-228.13 -38.11,-244.85 m 477.15,1163.37 c 28.61,-1.44 57.19,-18.29 56.82,-41.46 -0.53,-35.52 -34.34,-44.16 -60.53,-41.57 -35.2,3.47 -51.54,23.84 -51.07,44.78 0.54,24.39 25.97,39.7 54.78,38.25 z m -382.23,148.1 c 42.05,101.09 151.59,117.75 151.59,117.75 -84.54,2.63 -353.77,-40.27 -378.3,-307.31 -8.07,-87.85 24.43,-161.82 60.87,-223.03 -45.39,34.45 -100.02,93.18 -108.1,172.3 -6.66,64.29 27.13,162.91 27.13,162.91 -64.59,-76.4 -133.52,-172.04 -118.44,-301.44 14.08,-120.63 94.37,-202.09 148.73,-270.29 -39.77,19.41 -64.75,39.4 -101.41,77.7 11.8,-144.77 57.04,-256.12 158.81,-310.87 -129.68,12.43 -155.56,103.73 -192.61,206.08 -25.79,71.34 -68.77,111.66 -108.11,155.49 60.9,-12.28 95.35,-51.08 125.08,-94.66 -19.3,124.96 -109.34,179.08 -236.64,196.04 53.94,48.85 143.36,0.8 184.8,-22.59 0,0 -26.07,51.39 -49.61,76.64 -62.28,66.77 -198.71,51.05 -280.45,23.69 29.48,51.48 109.79,91.21 179.12,70.91 -42.63,37.13 -95.33,63.17 -162.24,67.56 -114.55,7.68 -210.48,-55.13 -266.94,-98 13.72,74.14 73.6,102.15 128.38,135.22 -191.28,31.81 -288.18,-87.57 -351.4,-206.17 -5.8,72.86 58,155.03 58,155.03 -234.468,-96.76 -199.94,-361.16 -199.94,-361.16 -43.126,26.04 -41.891,123.58 -27.044,169 0,0 -47.718,-67.24 -49.183,-163.65 -1.473,-97.4 66.907,-201.2 66.907,-201.2 -70.353,9.84 -114.126,150.53 -114.126,150.53 -38.371,-197.75 130.356,-357.14 130.356,-357.14 -75.755,7.88 -141.176,102.82 -141.176,102.82 27.046,-195.3 199.366,-300.58 199.366,-300.58 -53.88,-11.06 -132.698,42.67 -132.698,42.67 66.158,-150.18 164.038,-222.21 164.038,-222.21 -60.01,-2.96 -123.484,69.85 -123.484,69.85 -5.41,-69.85 33.464,-161.85 33.464,-161.85 -61.483,21.64 -79.69,109.7 -79.69,109.7 -50.176,-70.34 -40.34,-174.63 -40.34,-174.63 -59.52,39.35 -55.102,122.98 -55.102,122.98 -58.043,-29.02 -91.644,-144.51 -91.644,-144.51 -29.024,62.47 1.625,135.66 1.625,135.66 -80.672,-20.66 -131.832,-116.11 -131.832,-116.11 -5.16,58.43 32.101,127.06 32.101,127.06 -63.453,-1.98 -117.695,-92.12 -117.695,-92.12 -11.07,59.64 45.25,125.08 45.25,125.08 -69.848,7.38 -129.863,-67.53 -129.863,-67.53 -8.364,68.87 59.035,120.03 59.035,120.03 -74.281,17.71 -129.746,-48.2 -129.746,-48.2 -10.332,72.31 68.621,122.86 68.621,122.86 -59.524,25.58 -124.336,-27.43 -124.336,-27.43 -7.379,73.78 74.59,115.61 74.59,115.61 -50.168,34.44 -116.047,0.7 -116.047,0.7 10.82,60.51 86.09,76.76 86.09,76.76 -42.926,48.68 -106.867,43.92 -106.867,43.92 21.285,53.13 91.191,43.9 91.191,43.9 -33.68,47.71 -94.992,64.2 -94.992,64.2 38.367,32.47 92.922,9.99 92.922,9.99 -15.274,52.78 -78.168,83.72 -78.168,83.72 49.195,16.23 96.05,-16.23 96.05,-16.23 -5.906,48.21 -57.046,92.79 -57.046,92.79 57.066,-2.46 96.402,-44.09 96.402,-44.09 -0.5,41.32 -28.688,91.64 -28.688,91.64 46.243,-14.27 87.223,-61.14 87.223,-61.14 4.926,38.85 -6.305,62.28 -6.305,62.28 76.969,-28.92 124.789,-87.03 165.618,-152.04 -20.911,119.68 -96.289,205.92 -216.278,216.26 -208.898,17.95 -342.1482,-218.98 -341.7302,-392.64 0.4765,-202.52 69.0972,-337.23 159.4652,-468.47 104.925,-152.4 286.48,-269.84 456.363,-304.81 -54.129,-17.49 -104.942,-60.8 -104.942,-110.76 88.29,-5.84 160.719,-45.79 198.219,-94.1 0,0 251.866,0 309.906,0 75.26,0 143.84,1.62 167.52,6.69 57.13,12.25 83.81,141.12 152.11,138.56 67.75,-2.49 47.87,-112.02 -10.22,-114.86 -18.95,-0.97 -27.81,8 -43.89,13.47 61.34,-146.81 243.68,19.18 158.76,121.66 98.99,-3.98 92.44,-132.08 23.69,-145.31 108.03,-10.46 139.4,97.07 89.71,174.79 -49.69,77.71 -148.56,62.97 -227.76,25.58 -79.2,-37.4 -150.53,-66.42 -203.23,-73.09 -42.42,-5.37 -83.81,-2.93 -111.53,13.53 -80.92,47.95 63.22,127.54 97.99,148.69 127.78,77.55 263.94,170.49 277.11,354.77 9.9,137.49 -41.85,209.23 -84.5,294 -34.95,69.58 -71.98,139.57 -77.68,229.78 -7.8,122.82 82.79,214.25 192.6,209.52 154.07,-6.58 232.96,-129.2 243.33,-283.87 4.06,-61.28 -9.38,-134.33 -13.52,-195.99 -17.18,-256.52 105.86,-387.96 243.28,-506.87 126.02,-108.96 249.48,-179.86 405.53,-246.69 10.8,-98.71 71,-207.72 189.22,-155.46 61.29,-105.37 288.63,-85.71 256.8,67.58 -14.83,71.52 -120.47,81.97 -113.03,163.66 3.59,38.88 48.3,59.97 89.4,45.89 43.51,-15 64.04,-81.24 60.82,-128.42 68.14,113.71 -1.25,279.65 -141.86,246.7 -71.5,-16.73 -142.01,-142 -142.01,-142 -90.67,49.03 -177.37,97.73 -177.37,97.73 208.27,10.25 340.04,102.39 417.33,243.62 100.57,-23.29 168.59,45.99 141.91,128.42 0,0 87.89,-27.08 97.85,-99.02 9.97,-71.95 -85.99,-88.4 -140.39,-53.24 0,0 46.1,-110.11 134.38,-88.58 88.3,21.54 78.71,115.25 59.51,152.52 -19.18,37.27 -98.87,107.72 -78.2,155.32 20.64,47.6 116.56,15.49 102.56,-107.55 69.96,97.79 8.43,253.47 -104.71,253.47 -83.81,0 -117.09,-71.45 -138.61,-145.34 0,0 -27.11,10.49 -57.46,3.39 -17.35,118.71 -92.19,196.08 -212.84,243.29 -107.89,42.3 -212.75,115.46 -223.04,233.19 -4.87,55.54 12.65,100.46 54.04,121.64 108.03,55.17 180.68,-63.75 199.41,-141.96 -1.25,91.89 33.42,136.01 74.32,182.52 -32.89,54.96 -96.89,102.1 -182.46,91.26 -59.32,-7.5 -116.6,-39.57 -116.6,-39.57 27.93,63.68 76.54,176.3 184.16,181.5 87.36,4.17 129.88,-72.82 155.47,-148.71 14.41,143.26 90.87,242.5 162.22,317.65 -83.28,-48.98 -126.07,54.04 -206.17,54.04 -114.34,0 -169.67,-126.34 -266.91,-138.56 -40.63,-5.02 -71.16,23.91 -87.89,37.17 -30.82,24.48 -55.32,102.03 -13.25,203.12" /><path
         id="path16"
         style="fill:#203466;fill-opacity:1;fill-rule:nonzero;stroke:none"
         d="m 675.703,827.18 c 0,220.39 -115.043,381.45 -296.68,381.45 -25.429,0 -67.812,-1.21 -92.031,-2.42 V 541.398 c 3.633,-56.906 37.539,-87.187 116.25,-87.187 190.117,0 272.461,155 272.461,372.969 z M 0,444.531 c 24.2188,1.211 72.6563,7.258 88.3984,13.321 29.0626,10.898 37.5396,32.687 37.5396,59.328 v 618.79 c 0,26.64 -8.477,49.65 -37.5396,61.76 -27.8515,13.32 -61.7578,18.16 -83.55465,20.59 v 26.64 H 404.453 c 169.527,0 455.309,-87.19 455.313,-418.991 0,-282.149 -240.977,-408.078 -479.532,-408.078 H 0 v 26.64" /><path
         id="path18"
         style="fill:#203466;fill-opacity:1;fill-rule:nonzero;stroke:none"
         d="m 894.871,442.109 c 20.59,1.211 35.117,3.633 52.07,9.68 23.008,7.27 31.489,26.641 31.489,53.281 l -0.008,352.391 c -1.211,25.43 -13.32,50.859 -31.484,64.18 -14.532,9.679 -38.75,18.16 -60.547,19.371 v 23.008 l 222.819,14.531 8.48,-8.481 v -82.34 h 2.42 c 50.86,65.391 106.56,95.661 161.05,95.661 47.22,0 88.4,-37.532 88.4,-89.61 0,-48.429 -29.07,-88.39 -76.29,-88.39 -44.8,0 -76.29,21.789 -76.29,66.601 0,16.949 9.69,31.477 10.9,47.219 -56.91,0 -96.87,-47.219 -110.19,-69.02 V 511.129 c 0,-26.637 12.1,-46.02 32.69,-54.488 20.59,-8.481 59.34,-13.321 79.92,-14.532 V 417.891 H 894.871 v 24.218" /><path
         id="path20"
         style="fill:#203466;fill-opacity:1;fill-rule:nonzero;stroke:none"
         d="m 1729.18,769.059 c 0,89.613 -10.89,187.691 -93.24,187.691 -66.6,0 -107.77,-72.648 -111.4,-190.109 z m -354.8,-71.45 c 0,150.161 95.67,288.211 266.41,288.211 174.37,0 237.34,-111.41 237.34,-236.14 v -13.321 h -353.59 v -13.32 c 0,-150.148 48.43,-259.141 173.16,-259.141 84.77,0 124.73,30.282 169.53,108.993 l 23.01,-15.75 c -43.59,-88.391 -128.36,-155 -238.56,-155 -190.11,0 -277.3,133.211 -277.3,295.468" /><path
         id="path22"
         style="fill:#203466;fill-opacity:1;fill-rule:nonzero;stroke:none"
         d="m 2298.31,885.309 c 6.05,8.472 10.89,19.371 10.89,26.64 0,16.949 -50.86,30.27 -66.6,33.91 v 24.211 h 211.92 v -23 c -59.34,-16.961 -95.67,-46.019 -117.46,-71.449 -15.75,-18.16 -66.61,-82.34 -111.41,-138.051 47.23,-69.019 130.78,-203.429 152.58,-233.711 25.43,-35.109 41.17,-52.07 92.03,-60.539 V 417.891 H 2176 v 25.429 c 29.06,2.422 64.18,10.891 64.18,24.211 0,6.059 -7.26,20.59 -14.53,32.699 -35.12,59.34 -62.97,99.301 -93.24,146.52 -32.7,-38.75 -84.77,-107.77 -110.2,-144.102 -6.05,-8.468 -9.69,-19.367 -9.69,-26.636 0,-16.953 55.71,-30.27 71.45,-33.903 v -24.218 h -211.91 v 23 c 59.33,16.961 89.61,46.019 111.4,71.449 16.96,19.371 82.35,101.719 130.78,161.051 -29.06,42.39 -99.29,148.949 -144.1,216.757 -31.48,47.231 -61.76,54.493 -88.4,54.493 v 25.429 h 283.36 v -25.429 c -24.22,0 -56.91,-7.262 -56.91,-16.95 0,-7.261 4.84,-15.742 10.9,-26.64 8.47,-15.742 47.22,-77.5 88.4,-138.051 30.27,37.539 67.81,89.609 90.82,122.309" /><path
         id="path24"
         style="fill:#203466;fill-opacity:1;fill-rule:nonzero;stroke:none"
         d="m 2802.06,769.059 c 0,89.613 -10.9,187.691 -93.25,187.691 -66.6,0 -107.77,-72.648 -111.4,-190.109 z m -354.81,-71.45 c 0,150.161 95.67,288.211 266.41,288.211 174.37,0 237.34,-111.41 237.34,-236.14 v -13.321 h -353.59 v -13.32 c 0,-150.148 48.43,-259.141 173.16,-259.141 84.77,0 124.73,30.282 169.53,108.993 l 23.01,-15.75 c -43.59,-88.391 -128.36,-155 -238.55,-155 -190.12,0 -277.31,133.211 -277.31,295.468" /><path
         id="path26"
         style="fill:#203466;fill-opacity:1;fill-rule:nonzero;stroke:none"
         d="m 2950.98,442.109 c 20.59,1.211 36.33,3.633 52.07,9.68 23.01,7.27 32.7,26.641 32.7,53.281 v 685.39 c -1.21,29.07 -13.32,56.92 -32.7,70.24 -14.53,9.69 -62.97,21.8 -84.76,23.01 v 24.22 l 247.03,13.32 8.47,-8.48 V 512.34 c 0,-26.641 10.9,-46.02 32.7,-55.699 18.16,-7.27 31.48,-12.11 53.28,-14.532 v -24.218 h -308.79 v 24.218" /><path
         id="path28"
         style="fill:#203466;fill-opacity:1;fill-rule:nonzero;stroke:none"
         d="m 115.934,85.25 v 153.309 c 0,8.601 -3.125,14.863 -12.121,19.55 -7.0396,3.532 -21.1216,5.871 -26.9849,6.653 v 8.609 H 208.23 v -8.609 c -7.039,-0.782 -21.117,-2.731 -27.765,-5.09 -9.777,-3.121 -12.125,-10.551 -12.125,-19.16 V 89.5586 c 0,-39.8984 14.469,-71.5781 66.875,-71.5781 52.797,0 72.348,35.9883 72.348,72.75 V 199.84 c 0,30.512 -4.692,46.539 -13.293,52.801 -8.215,5.859 -30.114,11.339 -38.329,12.121 v 8.609 h 115.372 v -8.609 c -6.649,-0.782 -26.989,-3.903 -35.981,-9.77 -9.773,-6.652 -12.516,-24.64 -12.516,-52.812 V 88.7813 C 322.816,25.4219 269.238,0 223.09,0 152.695,0 115.934,37.1484 115.934,85.25" /><path
         id="path30"
         style="fill:#203466;fill-opacity:1;fill-rule:nonzero;stroke:none"
         d="M 500.391,219.012 V 80.9492 c 0,-30.1094 4.691,-46.539 13.297,-53.5703 6.648,-5.4805 31.289,-11.7383 38.324,-12.5195 V 6.26172 H 436.645 v 8.59768 c 6.648,0.7812 29.332,5.8711 35.976,10.5625 9,6.6484 12.516,23.457 12.516,53.5781 v 136.871 c 0,11.738 -3.91,23.469 -12.125,30.899 -8.992,7.832 -26.981,15.652 -39.496,17.601 v 9 h 87.992 L 674.426,79 v 120.449 c 0,28.942 -4.696,46.93 -13.297,53.192 -7.043,5.078 -30.508,11.339 -38.332,12.121 v 8.609 h 114.98 v -8.609 c -6.648,-0.782 -28.16,-4.703 -35.98,-10.16 -9.387,-6.653 -12.516,-25.422 -12.516,-52.813 V 4.30078 H 669.34 L 500.391,219.012" /><path
         id="path32"
         style="fill:#203466;fill-opacity:1;fill-rule:nonzero;stroke:none"
         d="m 818.363,14.8594 c 7.043,0.3906 23.078,2.3398 28.16,4.3125 9.383,3.5078 12.125,10.1601 12.125,18.7695 V 238.559 c 0,8.601 -2.742,14.863 -12.125,18.773 -7.043,2.727 -20.726,6.648 -28.16,7.43 v 8.609 h 132.578 v -8.609 c -7.039,-0.782 -21.507,-3.121 -28.546,-5.481 -9.387,-3.121 -11.735,-10.16 -11.735,-18.769 V 39.8906 c 0,-8.6093 3.129,-14.8593 11.735,-18.7695 4.691,-1.9492 21.507,-5.4805 28.546,-6.2617 V 6.26172 H 818.363 v 8.59768" /><path
         id="path34"
         style="fill:#203466;fill-opacity:1;fill-rule:nonzero;stroke:none"
         d="m 1058.51,235.832 c -3.52,9.77 -7.44,15.629 -17.21,21.5 -7.04,3.918 -17.21,7.039 -25.82,7.43 v 8.609 h 131.8 v -8.609 c -21.51,-2.34 -37.15,-6.653 -37.15,-14.473 0,-2.738 0.78,-6.648 1.95,-9.777 4.31,-12.903 37.94,-109.114 61.79,-175.2034 17.6,41.4534 42.24,102.0704 49.67,121.6324 10.56,27.368 18.38,44.969 18.38,57.879 0,11.731 -25.42,18.379 -44.58,19.551 v 9 h 105.59 v -9 c -7.43,-0.391 -18.38,-3.512 -25.42,-7.43 -10.95,-7.039 -16.04,-17.992 -21.9,-30.902 C 1243.49,197.891 1186,59.0508 1162.53,3.12891 h -20.72 C 1114.43,79.7813 1068.28,208.832 1058.51,235.832" /><path
         id="path36"
         style="fill:#203466;fill-opacity:1;fill-rule:nonzero;stroke:none"
         d="m 1362.39,14.8594 c 7.04,0.7812 25.03,2.7304 30.51,5.0898 9.39,3.5117 12.12,10.1602 12.12,19.1602 V 238.172 c 0,8.598 -2.34,15.25 -12.12,19.16 -7.43,3.117 -23.47,6.648 -30.51,7.43 v 8.609 h 222.13 v -64.93 h -10.55 c -4.69,17.598 -25.43,49.278 -43.81,52.008 -9.37,1.192 -19.94,1.582 -32.07,1.582 h -41.05 V 150.559 h 29.34 c 21.5,0 28.53,6.652 33.62,11.742 6.65,6.648 12.11,26.199 13.29,36.371 h 10.56 V 88.7813 h -10.56 c -1.18,11.7187 -7.82,32.4607 -13.29,38.3207 -5.48,5.859 -12.91,11.73 -33.62,11.73 h -29.34 V 52.4102 c 0,-30.5118 6.64,-34.4297 44.18,-34.4297 24.64,0 51.23,-0.3907 60.62,9 13.69,13.6914 28.95,44.9804 33.63,57.4883 h 9.79 l -5.1,-78.20708 h -237.77 v 8.59768" /><path
         id="path38"
         style="fill:#203466;fill-opacity:1;fill-rule:nonzero;stroke:none"
         d="m 1809.81,146.66 c 34.41,0 63.75,13.68 63.75,58.66 0,42.629 -23.87,56.711 -55.14,56.711 h -24.65 V 146.66 Z m 59.45,-79.3983 c -4.31,36.3793 -12.13,67.6603 -52.81,67.6603 h -22.68 V 39.5 c 0,-8.6094 2.74,-15.6484 11.74,-19.1602 5.08,-1.9687 21.12,-4.6992 28.15,-5.4804 V 6.26172 h -132.97 v 8.59768 c 7.05,0.3906 23.87,2.7304 28.94,4.6992 9.4,3.5117 12.13,10.5508 12.13,19.5508 V 238.949 c 0,8.602 -2.34,16.043 -12.13,19.551 -7.03,2.75 -21.89,5.48 -28.94,6.262 v 8.609 h 139.63 c 49.27,0 91.5,-17.992 91.5,-60.621 0,-42.629 -40.27,-60.629 -71.95,-69.23 v -3.122 c 19.16,-2.347 50.06,-12.117 57.87,-40.6792 5.88,-21.5 7.83,-38.3204 12.52,-57.0977 3.91,-15.2422 12.13,-18.3789 18.77,-18.3789 9.78,0 18.38,11.3476 18.38,35.5898 0,0.3868 0,8.2071 0,8.2071 h 10.95 l -0.39,-8.5977 C 1977.58,25.0313 1963.5,1.94922 1924.4,1.94922 c -32.85,0 -49.28,18.78128 -55.14,65.31248" /><path
         id="path40"
         style="fill:#203466;fill-opacity:1;fill-rule:nonzero;stroke:none"
         d="M 2096.51,20.7305 2083.6,2.74219 h -13.3 l -2.35,94.63671 h 9.4 c 15.25,-39.8867 43.4,-84.0781 88.77,-84.0781 32.46,0 49.28,20.3281 49.28,48.4883 0,23.4609 -14.09,39.4919 -40.3,49.2809 -19.55,7.418 -35.58,12.899 -53.18,20.328 -31.68,13.692 -46.93,38.332 -46.93,72.364 0,41.84 33.24,75.468 84.1,75.468 24.24,0 48.08,-9.378 61.77,-18.781 l 11.74,16.821 h 13.69 l 1.57,-90.719 h -9.01 c -17.6,48.879 -40.66,80.16 -81.35,80.16 -19.55,0 -39.88,-14.473 -39.88,-41.449 0,-23.473 12.91,-37.153 37.93,-48.5 18.38,-8.211 36.78,-13.68 52.01,-20.332 32.07,-14.078 52.82,-31.68 52.82,-73.1292 0,-47.711 -38.73,-82.51955 -93.87,-82.51955 -35.98,0 -57.09,11.33985 -70,19.94925" /><path
         id="path42"
         style="fill:#203466;fill-opacity:1;fill-rule:nonzero;stroke:none"
         d="m 2363.64,14.8594 c 7.03,0.3906 23.06,2.3398 28.14,4.3125 9.4,3.5078 12.13,10.1601 12.13,18.7695 V 238.559 c 0,8.601 -2.73,14.863 -12.13,18.773 -7.03,2.727 -20.72,6.648 -28.14,7.43 v 8.609 h 132.56 v -8.609 c -7.03,-0.782 -21.51,-3.121 -28.54,-5.481 -9.39,-3.121 -11.74,-10.16 -11.74,-18.769 V 39.8906 c 0,-8.6093 3.13,-14.8593 11.74,-18.7695 4.69,-1.9492 21.51,-5.4805 28.54,-6.2617 V 6.26172 h -132.56 v 8.59768" /><path
         id="path44"
         style="fill:#203466;fill-opacity:1;fill-rule:nonzero;stroke:none"
         d="m 2640.92,14.8594 c 7.03,0.3906 26.6,3.1211 31.68,5.0898 9.38,3.5117 12.13,10.9414 12.13,19.5508 v 222.531 h -13.69 c -9,0 -21.13,-0.39 -30.12,-1.582 -16.81,-2.34 -37.93,-39.879 -42.63,-57.078 h -9.77 v 70 h 244.41 v -70 h -9.76 c -4.69,17.199 -25.82,54.738 -42.64,57.078 -8.98,1.192 -19.94,1.582 -30.1,1.582 h -13.69 V 41.4492 c 0,-8.5976 3.13,-15.6406 12.11,-19.5508 4.71,-1.9492 24.65,-6.2578 31.68,-7.039 V 6.26172 h -139.61 v 8.59768" /><path
         id="path46"
         style="fill:#203466;fill-opacity:1;fill-rule:nonzero;stroke:none"
         d="m 2967.11,14.8594 c 7.04,0.3906 26.98,2.7304 32.06,4.6992 9.39,3.5117 12.12,10.9414 12.12,19.5508 V 100.5 c 0,12.129 -3.12,20.352 -11.32,35.211 -14.09,27.371 -39.13,73.91 -52.04,95.809 -6.64,11.73 -15.25,21.121 -24.23,26.589 -7.03,3.922 -17.6,6.262 -25.04,6.653 v 8.609 h 138.06 v -8.609 c -13.69,-0.782 -39.12,-4.313 -39.12,-12.91 0,-4.692 30.51,-63.743 60.63,-116.141 17.2,28.148 62.19,103.238 62.19,111.449 0,11.731 -22.31,16.43 -39.91,17.602 v 8.609 h 100.51 v -8.609 c -7.03,-0.782 -17.21,-4.703 -22.68,-7.821 -10.56,-6.261 -16.42,-12.121 -24.23,-23.082 -11.74,-16.418 -41.08,-66.089 -57.89,-96.199 -10.57,-18.379 -12.91,-30.121 -12.91,-48.1014 v -48.5 c 0,-8.5977 3.14,-15.6367 12.12,-19.5469 4.69,-1.9531 24.65,-6.2617 31.68,-6.6523 V 6.26172 h -140 v 8.59768" /></g></g></svg>