<svg version="1.1" viewBox="0.0 0.0 960.0 720.0" fill="none" stroke="none" stroke-linecap="square" stroke-miterlimit="10" xmlns:xlink="http://www.w3.org/1999/xlink" xmlns="http://www.w3.org/2000/svg"><clipPath id="p.0"><path d="m0 0l960.0 0l0 720.0l-960.0 0l0 -720.0z" clip-rule="nonzero"/></clipPath><g clip-path="url(#p.0)"><path fill="#000000" fill-opacity="0.0" d="m0 0l960.0 0l0 720.0l-960.0 0z" fill-rule="evenodd"/><path fill="#c8b7d8" d="m129.85826 9.858268l700.28345 0l0 700.28345l-700.28345 0z" fill-rule="evenodd"/><path fill="#c8b7d8" d="m237.34373 69.00001l485.3125 0l0 291.19998l-485.3125 0l0 -291.19998z" fill-rule="nonzero"/><path fill="#000000" fill-opacity="0.0" d="m237.34373 93.4273l485.3125 0l0 276.7798l-485.3125 0l0 -276.7798z" fill-rule="nonzero"/><path fill="#ffffff" d="m427.0 300.2569q-79.84375 6.40625 -107.5 9.6875q-27.65625 3.296875 -37.515625 6.578125q-5.40625 -14.859375 -12.484375 -30.421875q10.8125 -3.109375 21.5625 -15.65625q10.75 -12.546875 26.015625 -37.062515q15.265625 -24.515625 16.109375 -30.0l-43.40625 0q-11.25 0 -36.32814 1.203125l0 -28.609375q25.07814 1.203125 39.17189 1.203125l147.875 0q12.15625 0 33.484375 -1.265625l0 28.75q-20.375 -1.28125 -34.4375 -1.28125l-88.890625 -2.96875q1.609375 -2.5 20.109375 9.390625q-10.734375 10.71875 -15.8125 18.109375q-5.078125 7.390625 -16.046875 23.609375q-10.96875 16.20314 -24.046875 31.67189q19.078125 -1.734375 94.234375 -6.796875q-11.328125 -15.09375 -29.203125 -34.17189q11.796875 -8.859375 22.046875 -19.078125q48.265625 56.468765 63.515625 78.79689q-10.53125 7.53125 -24.296875 18.53125q-9.453125 -14.84375 -14.15625 -20.21875zm-13.046875 -187.54688q14.0625 0 34.4375 -1.265625l0 29.718742q-19.4375 -1.296875 -34.4375 -1.296875l-99.53125 0q-11.1875 0 -30.625 1.296875l0 -29.734367q19.4375 1.28125 29.6875 1.28125l100.46875 0zm116.375 75.71874q15.859375 -10.078125 29.5625 -25.609375q13.703125 -15.53125 22.234375 -36.203117q15.921875 9.265617 32.765625 14.874992q-11.5 9.203125 -11.375 8.5l60.625 -0.3125q-9.71875 23.65625 -19.0625 36.4375q-9.328125 12.765625 -15.875 18.75q3.75 2.046875 19.328125 6.640625q15.578125 4.578125 40.59375 5.96875q-8.9375 14.25 -13.859375 30.296875q-14.125 -2.8125 -18.765625 -4.078125q-0.53125 7.890625 -0.53125 21.937515q0 13.109375 1.28125 33.484375l-101.75 0q1.28125 -20.375 1.28125 -33.484375q0 -13.07814 -0.484375 -19.906265q-3.5625 1.078125 -19.9375 5.171875q-3.828125 -15.328125 -12.859375 -27.953125q21.109375 -3.0 39.0 -8.5q17.890625 -5.515625 22.296875 -8.71875q-9.75 -7.796875 -14.109375 -14.875q-0.453125 0.53125 -18.8125 17.65625q-7.796875 -9.375 -21.546875 -20.078125zm180.85938 -81.39062q-1.1875 25.999992 -1.1875 46.749992l0 134.46877q1.109375 23.203125 -12.125 29.265625q-13.234375 6.0625 -35.203125 9.71875q-5.015625 -15.03125 -14.5625 -32.53125q28.046875 0 30.5625 -1.390625q2.515625 -1.40625 3.21875 -9.875l0 -150.20314l-63.1875 0q-16.921875 0 -38.234375 1.234375l0 -28.703117q21.328125 1.265625 37.28125 1.265625l93.4375 0zm-176.10938 34.109367q-2.328125 28.0 -2.328125 46.765625l0 137.75002l-29.203125 0q1.09375 -34.515625 1.09375 -50.546875l0 -88.156265q0 -19.796875 -1.171875 -45.8125l31.609375 0zm93.734375 132.70314l0 -17.390625l-44.875 0l0 17.390625l44.875 0zm-22.671875 -82.750015q5.953125 -4.75 13.5625 -16.15625l-29.390625 0q4.734375 8.53125 15.828125 16.15625zm14.265625 40.09375q-2.1875 -0.890625 -14.15625 -8.859375q-14.609375 8.921875 -14.96875 8.96875l29.125 -0.109375zm-84.03125 -138.70312q15.96875 17.203125 33.78125 38.578117q-13.765625 9.640625 -24.90625 19.203125q-12.09375 -21.78125 -31.140625 -39.624992q15.046875 -10.9375 22.265625 -18.15625z" fill-rule="nonzero"/><path fill="#c8b7d8" d="m237.34373 360.0l485.3125 0l0 291.2l-485.3125 0l0 -291.2z" fill-rule="nonzero"/><path fill="#000000" fill-opacity="0.0" d="m237.34373 384.4273l485.3125 0l0 276.7798l-485.3125 0l0 -276.7798z" fill-rule="nonzero"/><path fill="#ffffff" d="m420.89062 397.41315q-4.109375 10.28125 -6.90625 18.203125q-2.78125 7.921875 -6.6875 22.21875l36.984375 0q9.3125 0 27.796875 -1.3125l0 28.015625q-15.703125 -1.4375 -16.109375 -1.4375q0 10.53125 -5.3125 43.875q-5.3125 33.328125 -17.34375 54.78125q6.90625 8.265625 18.21875 16.875q11.3125 8.59375 29.796875 15.296875q-17.890625 13.421875 -23.5625 24.765625q-16.46875 -9.625 -26.3125 -18.484375q-9.84375 -8.859375 -15.9375 -16.78125q-6.765625 7.375 -18.96875 15.671875q-12.203125 8.3125 -34.84375 20.21875q-6.4375 -11.578125 -22.984375 -20.765625q23.625 -9.453125 39.1875 -19.53125q15.578125 -10.09375 21.546875 -17.375q-5.265625 -10.515625 -11.5625 -26.0q-6.28125 -15.484375 -6.859375 -33.1875q2.46875 1.296875 -6.796875 18.453125q-10.828125 -6.15625 -25.34375 -11.984375q17.734375 -31.09375 27.078125 -61.890625q9.34375 -30.796875 12.953125 -59.6875q17.046875 7.09375 31.96875 10.0625zm-89.15625 102.609375q-9.453125 9.4375 -9.671875 9.859375l49.953125 0q-7.375 30.671875 -18.875 49.84375q9.859375 3.6875 23.65625 11.34375q-7.78125 10.921875 -13.96875 23.265625q-12.71875 -8.484375 -26.015625 -12.921875q-17.609375 19.375 -69.625 37.421875q-5.90625 -12.984375 -24.35939 -22.234375q56.57814 -13.234375 66.04689 -23.828125q-18.46875 -4.625 -42.3125 -11.25q9.34375 -14.03125 15.234375 -26.390625q-1.375 0 -28.343765 1.171875l0 -27.65625q23.20314 1.234375 38.73439 1.234375q2.21875 -4.984375 5.0625 -20.6875q15.859375 5.75 34.484375 10.828125zm-27.09375 -66.921875q0 -17.59375 -1.1875 -43.59375l29.546875 0q-1.203125 25.0625 -1.203125 43.59375q27.0 0 45.5 -1.328125l0 27.90625q-18.484375 -1.3125 -45.5 -1.3125q0 22.28125 1.28125 42.65625l-29.765625 0q1.328125 -18.515625 3.8125 -29.28125q1.734375 1.921875 -12.0 14.1875q-13.734375 12.25 -30.0 21.734375q-6.375 -11.46875 -26.968765 -19.71875q20.843765 -6.9375 34.375015 -16.859375q13.546875 -9.9375 15.40625 -12.71875q-9.390625 0 -31.640625 1.21875l0 -27.75q21.328125 1.265625 48.34375 1.265625zm93.671875 35.03125q8.140625 53.40625 17.46875 66.8125q5.609375 -12.890625 8.84375 -34.703125q3.25 -21.8125 3.953125 -37.140625l-28.265625 0l-2.0 5.03125zm-93.375 78.546875q5.0 1.25 21.765625 5.25q5.078125 -6.34375 8.921875 -16.796875l-24.703125 0q-3.390625 6.78125 -5.984375 11.546875zm71.34375 -144.71875q-8.078125 12.9375 -10.875 19.46875q-2.796875 6.515625 -9.84375 20.640625q-11.625 -5.796875 -25.34375 -9.21875q10.90625 -17.75 19.265625 -41.59375q14.1875 7.109375 26.796875 10.703125zm-36.609375 50.5q16.3125 16.3125 31.359375 32.625q-9.59375 7.984375 -20.0 18.390625q-16.734375 -20.328125 -28.6875 -33.609375q9.34375 -7.8125 17.328125 -17.40625zm-62.625 -61.6875q17.640625 17.640625 29.28125 35.765625l-23.359375 14.0q-8.625 -17.234375 -26.171875 -32.296875q13.421875 -8.921875 20.25 -17.46875zm431.65625 11.046875q-1.546875 13.859375 -1.546875 25.90625l0 12.3125q0 16.75 1.625 29.703125l-101.15625 0l0 18.34375l33.515625 0q0 -3.34375 -1.25 -25.59375l28.734375 0q-1.28125 20.359375 -1.28125 25.59375l20.546875 0q16.84375 0 33.484375 -1.390625l0 28.03125q-16.640625 -1.390625 -32.53125 -1.390625l-21.5 0l0 15.5l41.96875 0q-1.203125 23.1875 -1.203125 28.75l0 23.6875q0 15.0 1.3125 33.484375l-27.53125 0l0 -13.265625l-52.453125 0l0 14.21875l-27.625 0q1.40625 -15.6875 1.40625 -31.59375l0 -27.484375q0 -9.3125 -1.3125 -27.796875l39.234375 0l0 -15.5l-34.625 0q-0.796875 23.15625 -7.109375 47.875q-6.296875 24.71875 -20.546875 52.03125q-12.578125 -8.390625 -28.25 -13.09375q15.1875 -20.234375 20.203125 -36.6875q5.03125 -16.46875 7.8125 -35.53125q2.796875 -19.0625 2.796875 -39.546875l0 -36.015625q0 -15.09375 -1.109375 -50.546875l128.39062 0zm-180.35938 18.3125q0 -13.046875 -1.390625 -29.6875l29.953125 0q-1.40625 15.6875 -1.40625 29.6875l0 19.609375q4.296875 0 29.375 -1.203125l0 26.703125q-25.078125 -1.1875 -29.375 -1.1875l0 22.515625q4.703125 -2.53125 24.578125 -15.296875q1.796875 14.546875 7.578125 24.640625q-22.296875 12.921875 -32.15625 18.984375l0 66.375q0 21.375 -10.84375 25.921875q-10.828125 4.5625 -34.21875 8.25q-2.734375 -13.640625 -10.46875 -30.6875q23.203125 0 25.78125 -0.765625q2.59375 -0.78125 2.59375 -8.40625l0 -47.515625q-6.484375 3.453125 -25.78125 17.625q-5.0 -13.34375 -14.78125 -28.6875q24.59375 -8.59375 40.5625 -17.390625l0 -35.5625q-12.828125 0 -35.078125 1.21875l0 -26.78125q22.25 1.25 35.078125 1.25l0 -19.609375zm152.60938 25.296875l0 -19.296875l-73.328125 0l0 19.296875l73.328125 0zm0.9375 131.75l0 -24.984375l-52.453125 0l0 24.984375l52.453125 0z" fill-rule="nonzero"/></g></svg>