<svg version="1.1" viewBox="0.0 0.0 960.0 720.0" fill="none" stroke="none" stroke-linecap="square" stroke-miterlimit="10" xmlns:xlink="http://www.w3.org/1999/xlink" xmlns="http://www.w3.org/2000/svg"><clipPath id="p.0"><path d="m0 0l960.0 0l0 720.0l-960.0 0l0 -720.0z" clip-rule="nonzero"/></clipPath><g clip-path="url(#p.0)"><path fill="#000000" fill-opacity="0.0" d="m0 0l960.0 0l0 720.0l-960.0 0z" fill-rule="evenodd"/><path fill="#c8b7d8" d="m390.5748 286.01575l128.22049 0l0 128.22046l-128.22049 0z" fill-rule="evenodd"/><path fill="#c8b7d8" d="m403.3569 288.12598l102.65625 0l0 61.600006l-102.65625 0l0 -61.600006z" fill-rule="nonzero"/><path fill="#000000" fill-opacity="0.0" d="m403.3569 293.29587l102.65625 0l0 58.546143l-102.65625 0l0 -58.546143z" fill-rule="nonzero"/><path fill="#ffffff" d="m443.46628 337.0466q-16.875 1.359375 -22.734375 2.046875q-5.859375 0.703125 -7.9375 1.40625q-1.140625 -3.15625 -2.640625 -6.453125q2.296875 -0.640625 4.5625 -3.296875q2.28125 -2.65625 5.5 -7.84375q3.234375 -5.1875 3.421875 -6.359375l-9.1875 0q-2.375 0 -7.6875 0.25l0 -6.03125q5.3125 0.25 8.28125 0.25l31.28125 0q2.578125 0 7.078125 -0.265625l0 6.0625q-4.296875 -0.265625 -7.28125 -0.265625l-18.796875 -0.625q0.328125 -0.515625 4.25 1.984375q-2.28125 2.28125 -3.359375 3.84375q-1.0625 1.546875 -3.390625 4.984375q-2.3125 3.4375 -5.09375 6.703125q4.0625 -0.359375 19.953125 -1.421875q-2.390625 -3.203125 -6.1875 -7.234375q2.5 -1.875 4.671875 -4.03125q10.203125 11.953125 13.4375 16.65625q-2.234375 1.578125 -5.125 3.921875q-2.015625 -3.140625 -3.015625 -4.28125zm-2.75 -39.65625q2.96875 0 7.265625 -0.265625l0 6.28125q-4.09375 -0.28125 -7.265625 -0.28125l-21.0625 0q-2.375 0 -6.46875 0.28125l0 -6.296875q4.09375 0.28125 6.265625 0.28125l21.265625 0zm24.609375 16.0q3.359375 -2.125 6.25 -5.40625q2.90625 -3.28125 4.703125 -7.65625q3.359375 1.96875 6.921875 3.125q-2.421875 1.96875 -2.390625 1.8125l12.828125 -0.0625q-2.0625 5.0 -4.046875 7.703125q-1.96875 2.703125 -3.359375 3.96875q0.796875 0.4375 4.09375 1.40625q3.296875 0.96875 8.5625 1.265625q-1.875 3.0 -2.90625 6.40625q-2.984375 -0.609375 -3.96875 -0.875q-0.109375 1.671875 -0.109375 4.65625q0 2.765625 0.25 7.078125l-21.484375 0q0.25 -4.3125 0.25 -7.078125q0 -2.78125 -0.09375 -4.21875q-0.765625 0.234375 -4.234375 1.078125q-0.796875 -3.234375 -2.6875 -5.90625q4.4375 -0.625 8.21875 -1.78125q3.796875 -1.171875 4.734375 -1.84375q-2.078125 -1.65625 -2.984375 -3.15625q-0.09375 0.109375 -3.984375 3.734375q-1.65625 -1.984375 -4.5625 -4.25zm38.25 -17.203125q-0.25 5.5 -0.25 9.875l0 28.453125q0.234375 4.90625 -2.5625 6.1875q-2.796875 1.28125 -7.4375 2.0625q-1.0625 -3.1875 -3.0625 -6.890625q5.90625 0 6.4375 -0.296875q0.53125 -0.296875 0.6875 -2.09375l0 -31.765625l-13.375 0q-3.578125 0 -8.078125 0.265625l0 -6.0625q4.5 0.265625 7.875 0.265625l19.765625 0zm-37.25 7.21875q-0.5 5.921875 -0.5 9.875l0 29.140625l-6.15625 0q0.234375 -7.296875 0.234375 -10.6875l0 -18.65625q0 -4.171875 -0.25 -9.671875l6.671875 0zm19.84375 28.0625l0 -3.6875l-9.515625 0l0 3.6875l9.515625 0zm-4.796875 -17.5q1.25 -1.0 2.859375 -3.421875l-6.21875 0q1.0 1.796875 3.359375 3.421875zm3.03125 8.484375q-0.484375 -0.203125 -3.015625 -1.890625q-3.09375 1.875 -3.109375 1.890625l6.125 0zm-17.796875 -29.34375q3.375 3.640625 7.140625 8.171875q-2.90625 2.015625 -5.265625 4.03125q-2.546875 -4.609375 -6.59375 -8.375q3.203125 -2.3125 4.71875 -3.828125z" fill-rule="nonzero"/><path fill="#c8b7d8" d="m403.3569 350.12598l102.65625 0l0 61.600006l-102.65625 0l0 -61.600006z" fill-rule="nonzero"/><path fill="#000000" fill-opacity="0.0" d="m403.3569 355.29587l102.65625 0l0 58.546143l-102.65625 0l0 -58.546143z" fill-rule="nonzero"/><path fill="#ffffff" d="m442.18503 358.06223q-0.875 2.15625 -1.46875 3.828125q-0.59375 1.671875 -1.421875 4.71875l7.828125 0q1.984375 0 5.875 -0.28125l0 5.921875q-3.3125 -0.3125 -3.40625 -0.3125q0 2.21875 -1.125 9.28125q-1.125 7.0625 -3.671875 11.59375q1.46875 1.75 3.859375 3.578125q2.390625 1.8125 6.296875 3.234375q-3.78125 2.828125 -4.984375 5.21875q-3.46875 -2.03125 -5.546875 -3.90625q-2.078125 -1.875 -3.375 -3.546875q-1.4375 1.5625 -4.03125 3.3125q-2.578125 1.75 -7.34375 4.28125q-1.375 -2.453125 -4.859375 -4.390625q4.984375 -2.0 8.28125 -4.125q3.296875 -2.125 4.5625 -3.671875q-1.125 -2.234375 -2.46875 -5.515625q-1.328125 -3.28125 -1.4375 -7.015625q0.515625 0.265625 -1.4375 3.890625q-2.296875 -1.296875 -5.359375 -2.53125q3.75 -6.5625 5.71875 -13.078125q1.984375 -6.515625 2.734375 -12.625q3.609375 1.5 6.78125 2.140625zm-18.875 21.6875q-1.984375 1.984375 -2.046875 2.09375l10.5625 0q-1.546875 6.484375 -3.984375 10.546875q2.09375 0.78125 4.984375 2.40625q-1.640625 2.296875 -2.9375 4.890625q-2.671875 -1.78125 -5.5 -2.734375q-3.71875 4.109375 -14.71875 7.9375q-1.25 -2.765625 -5.171875 -4.703125q11.984375 -2.796875 14.0 -5.046875q-3.921875 -0.984375 -8.96875 -2.390625q1.984375 -2.953125 3.234375 -5.578125q-0.3125 0 -6.0 0.25l0 -5.84375q4.90625 0.265625 8.203125 0.265625q0.46875 -1.0625 1.078125 -4.390625q3.34375 1.234375 7.265625 2.296875zm-5.71875 -14.140625q0 -3.71875 -0.25 -9.234375l6.234375 0q-0.25 5.3125 -0.25 9.234375q5.71875 0 9.625 -0.28125l0 5.890625q-3.90625 -0.28125 -9.625 -0.28125q0 4.71875 0.265625 9.015625l-6.28125 0q0.28125 -3.890625 0.796875 -6.1875q0.375 0.40625 -2.53125 3.0q-2.90625 2.59375 -6.328125 4.578125q-1.359375 -2.40625 -5.703125 -4.125q4.390625 -1.484375 7.25 -3.578125q2.875 -2.109375 3.265625 -2.703125q-1.984375 0 -6.6875 0.265625l0 -5.859375q4.5 0.265625 10.21875 0.265625zm19.796875 7.390625q1.734375 11.296875 3.703125 14.15625q1.1875 -2.75 1.875 -7.359375q0.6875 -4.625 0.84375 -7.859375l-5.984375 0l-0.4375 1.0625zm-19.75 16.625q1.0625 0.265625 4.625 1.109375q1.0625 -1.34375 1.875 -3.5625l-5.234375 0q-0.71875 1.4375 -1.265625 2.453125zm15.109375 -30.625q-1.71875 2.734375 -2.3125 4.125q-0.578125 1.390625 -2.09375 4.359375q-2.4375 -1.21875 -5.34375 -1.953125q2.3125 -3.734375 4.078125 -8.765625q3.0 1.484375 5.671875 2.234375zm-7.75 10.703125q3.453125 3.4375 6.640625 6.890625q-2.03125 1.671875 -4.234375 3.875q-3.546875 -4.296875 -6.0625 -7.09375q1.984375 -1.640625 3.65625 -3.671875zm-13.234375 -13.03125q3.703125 3.703125 6.171875 7.53125l-4.9375 2.953125q-1.8125 -3.625 -5.515625 -6.8125q2.828125 -1.890625 4.28125 -3.671875zm91.265625 2.3125q-0.296875 2.9375 -0.296875 5.46875l0 2.609375q0 3.546875 0.3125 6.28125l-21.375 0l0 3.890625l7.09375 0q0 -0.71875 -0.25 -5.421875l6.046875 0q-0.25 4.3125 -0.25 5.421875l4.34375 0q3.5625 0 7.078125 -0.296875l0 5.921875q-3.515625 -0.296875 -6.875 -0.296875l-4.546875 0l0 3.296875l8.875 0q-0.265625 4.890625 -0.265625 6.0625l0 5.015625q0 3.171875 0.28125 7.078125l-5.8125 0l0 -2.8125l-11.109375 0l0 3.015625l-5.84375 0q0.3125 -3.3125 0.3125 -6.671875l0 -5.8125q0 -1.984375 -0.28125 -5.875l8.296875 0l0 -3.296875l-7.328125 0q-0.15625 4.90625 -1.5 10.140625q-1.328125 5.21875 -4.34375 10.984375q-2.65625 -1.765625 -5.96875 -2.765625q3.203125 -4.265625 4.265625 -7.75q1.0625 -3.484375 1.65625 -7.515625q0.59375 -4.03125 0.59375 -8.359375l0 -7.625q0 -3.1875 -0.234375 -10.6875l27.125 0zm-38.125 3.875q0 -2.765625 -0.28125 -6.28125l6.328125 0q-0.3125 3.3125 -0.3125 6.28125l0 4.140625q0.921875 0 6.21875 -0.234375l0 5.625q-5.296875 -0.25 -6.21875 -0.25l0 4.78125q1.015625 -0.546875 5.203125 -3.25q0.390625 3.078125 1.59375 5.21875q-4.703125 2.71875 -6.796875 4.0l0 14.046875q0 4.515625 -2.28125 5.484375q-2.28125 0.96875 -7.234375 1.734375q-0.578125 -2.875 -2.21875 -6.46875q4.90625 0 5.453125 -0.15625q0.546875 -0.171875 0.546875 -1.796875l0 -10.046875q-1.375 0.734375 -5.46875 3.71875q-1.03125 -2.828125 -3.109375 -6.0625q5.203125 -1.8125 8.578125 -3.671875l0 -7.53125q-2.703125 0 -7.40625 0.265625l0 -5.65625q4.703125 0.25 7.40625 0.25l0 -4.140625zm32.28125 5.34375l0 -4.078125l-15.515625 0l0 4.078125l15.515625 0zm0.203125 27.875l0 -5.296875l-11.109375 0l0 5.296875l11.109375 0z" fill-rule="nonzero"/></g></svg>